<svg width="178" height="178" viewBox="0 0 178 178" fill="none" xmlns="http://www.w3.org/2000/svg">
<path d="M140.917 22.25H37.0833C28.8911 22.25 22.25 28.8911 22.25 37.0833V140.917C22.25 149.109 28.8911 155.75 37.0833 155.75H140.917C149.109 155.75 155.75 149.109 155.75 140.917V37.0833C155.75 28.8911 149.109 22.25 140.917 22.25Z" stroke="#A676FF" stroke-width="10" stroke-linecap="round" stroke-linejoin="round"/>
<path d="M81.5833 66.75H111.25C115.184 66.75 118.957 65.1872 121.739 62.4054C124.521 59.6236 126.083 55.8507 126.083 51.9167V22.25" stroke="#A676FF" stroke-width="10" stroke-linecap="round" stroke-linejoin="round"/>
<path d="M66.75 81.5833C74.9422 81.5833 81.5833 74.9422 81.5833 66.75C81.5833 58.5578 74.9422 51.9167 66.75 51.9167C58.5578 51.9167 51.9167 58.5578 51.9167 66.75C51.9167 74.9422 58.5578 81.5833 66.75 81.5833Z" stroke="#A676FF" stroke-width="10" stroke-linecap="round" stroke-linejoin="round"/>
<path d="M51.9167 155.75V126.083C51.9167 122.149 53.4795 118.376 56.2613 115.595C59.043 112.813 62.816 111.25 66.75 111.25H96.4167" stroke="#A676FF" stroke-width="10" stroke-linecap="round" stroke-linejoin="round"/>
<path d="M111.25 126.083C119.442 126.083 126.083 119.442 126.083 111.25C126.083 103.058 119.442 96.4167 111.25 96.4167C103.058 96.4167 96.4167 103.058 96.4167 111.25C96.4167 119.442 103.058 126.083 111.25 126.083Z" stroke="#A676FF" stroke-width="10" stroke-linecap="round" stroke-linejoin="round"/>
</svg>
